<svg width="158.602539" height="35.949707" viewBox="0 0 158.603 35.9497" fill="none" xmlns="http://www.w3.org/2000/svg" xmlns:xlink="http://www.w3.org/1999/xlink">
	<desc>
			Created with Pixso.
	</desc>
	<path id="赴康云" d="M61.7476 2.39258L63.2979 4.15039L56.5474 35.9497L65.1533 35.9497L71.4033 6.39648L101.604 6.39648L102.153 2.39258L88.8472 2.39258L89.2012 0L77.7998 0L79.3989 1.89209L79.3013 2.39258L61.7476 2.39258ZM11.5967 1.94092L11.3525 3.74756L5.79834 3.74756L5.15137 8.04443L10.7056 8.04443L10.2051 11.792L3.35693 11.792L2.69775 16.5527L11.2549 16.5527L9.75342 27.2461L7.94678 26.5991L10.1074 17.9932L2.50244 17.9932L3.95508 19.7021L0 35.5469L5.70068 35.5469L6.55518 32.0923L15.2466 35.144L41.8579 35.144L42.5537 30.3467L17.0532 30.3467L17.9077 24.1943L23.4497 24.1943L24.1577 19.2505L18.6035 19.2505L19.0063 16.5527L24.5483 16.5527L25.2075 11.792L18.3472 11.792L18.8477 8.04443L24.4019 8.04443L25.0488 3.74756L19.458 3.74756L20.0073 0.0488281L10.0464 0.0488281L11.5967 1.94092ZM156.649 5.79834L157.357 0.891113L122.104 0.891113L121.408 5.79834L156.649 5.79834ZM27.6489 0.952148L29.2969 2.84424L25.5981 29.1992L34.1064 29.1992L36.4014 12.8418L36.853 21.2524L42.7002 21.2524L41.748 5.70068L37.4023 5.70068L38.0493 0.952148L27.6489 0.952148ZM80.2534 12.2925L80.1069 13.5498L71.2568 13.5498L70.7075 17.4438L79.5576 17.4438L79.3989 18.4448L71.6963 18.4448L71.0981 22.4487L78.8008 22.4487L77.5068 31.897L73.7471 35.498L82.9023 35.498Q83.3254 35.498 83.7224 35.3963Q84.5395 35.1867 85.2461 34.5459Q85.9561 33.902 86.2808 33.1017Q86.4362 32.7187 86.5034 32.2998L87.8462 22.4487L98.1001 22.4487L98.7959 17.4438L100.957 17.4438L101.506 13.5498L99.3574 13.5498L100.053 8.59375L89.7993 8.59375L90.0557 6.99463L80.998 6.99463L80.7539 8.59375L73.0024 8.59375L72.502 12.2925L80.2534 12.2925ZM89.1523 13.5498L89.2988 12.2925L92.0576 12.2925L91.8501 13.5498L89.1523 13.5498ZM154.098 35.9009L151.107 20.752L142.257 20.752L143.905 29.1016L128.097 29.8462L136.898 17.4927L157.956 17.4927L158.603 12.6953L116.708 12.6953L116.049 17.4927L126.449 17.4927L117.099 30.3955L116.403 35.5469L144.906 34.2529L145.248 35.9009L154.098 35.9009ZM91.3496 17.4438L91.2031 18.4448L88.4565 18.4448L88.603 17.4438L91.3496 17.4438ZM69.0474 23.5962L70.6465 28.2471L77.2993 28.2471L75.7979 23.5962L69.0474 23.5962ZM90.7026 23.5962L87.9561 28.2471L94.5967 28.2471L97.502 23.5962L90.7026 23.5962ZM70.5488 28.9917L65.7026 35.4492L72.3555 35.4492L77.2017 28.9917L70.5488 28.9917ZM87.8462 28.9917L90.8979 35.4492L97.5508 35.4492L94.499 28.9917L87.8462 28.9917Z" fill="#FFFFFF" fill-opacity="1.000000" fill-rule="evenodd"/>
</svg>
