<svg width="349.000000" height="42.000000" viewBox="0 0 349 42" fill="none" xmlns="http://www.w3.org/2000/svg" xmlns:xlink="http://www.w3.org/1999/xlink">
	<desc>
			Created with Pixso.
	</desc>
	<defs/>
	<rect id="矩形 1" rx="8.000000" width="349.000000" height="42.000000" fill="#FFFFFF" fill-opacity="1.000000"/>
	<path id="康复·让生活更美好~" d="M25.4531 10.7812L26.4453 11.9062L22.125 32.2578L27.6328 32.2578L31.6328 13.3438L50.9609 13.3438L51.3125 10.7812L42.7969 10.7812L43.0234 9.25L35.7266 9.25L36.75 10.4609L36.6875 10.7812L25.4531 10.7812ZM82.4947 10.1797L65.5025 10.1797L66.2056 9.25L57.6978 9.25L58.3384 10.0156L55.9009 13.1875L63.1978 13.1875L63.6509 12.5781L82.1431 12.5781L82.4947 10.1797ZM135.427 10.4297L132.896 28.4141L129.216 28.4141L128.771 31.7422L145.31 31.7422L145.763 28.4141L139.075 28.4141L140.419 18.8828L146.497 18.8828L146.911 15.8438L140.833 15.8438L141.763 9.25L134.364 9.25L135.427 10.4297ZM154.547 10.4609L155.406 11.4531L152.75 18.9766L158.836 18.9766L159.695 16.5469L164.015 16.5469L163.508 20.1953L154.383 20.1953L153.875 23.8438L162.992 23.8438L162.383 28.0938L151.468 28.0938L150.961 31.7422L177.711 31.7422L178.226 28.0938L168.461 28.0938L169.07 23.8438L176.976 23.8438L177.484 20.1953L169.586 20.1953L170.093 16.5469L178.609 16.5469L179.117 12.8984L170.609 12.8984L171.117 9.25L163.828 9.25L164.883 10.4609L164.531 12.8984L160.976 12.8984L161.843 10.4609L154.547 10.4609ZM258.046 13.5078L257.89 14.7188L249.374 14.7188L248.929 17.7578L257.437 17.7578L257.281 18.9766L247.554 18.9766L247.132 22.0156L272.671 22.0156L273.085 18.9766L263.359 18.9766L263.523 17.7578L272.031 17.7578L272.484 14.7188L263.968 14.7188L264.124 13.5078L273.249 13.5078L273.663 10.4609L270.148 10.4609L270.82 9.25L264.124 9.25L264.867 10.1094L264.671 10.4609L258.429 10.4609L258.046 9.25L251.968 9.25L252.929 10.3672L252.96 10.4609L249.343 10.4609L248.929 13.5078L258.046 13.5078ZM280.627 9.25L280.143 12.6094L278.932 12.6094L278.51 15.6484L279.697 15.6484L278.385 25.0547L280.689 28.0312L276.143 32.2891L281.299 32.2891L282.861 30.8125L284.049 32.2891L289.197 32.2891L285.869 28L289.01 25.0547L290.322 15.6484L291.564 15.6484L291.986 12.6094L290.768 12.6094L291.252 9.28125L286.385 9.28125L285.9 12.6094L285.01 12.6094L285.486 9.25L280.627 9.25ZM197.854 19.0391L197.471 21.7266L191.651 21.7266L190.237 31.6797L208.002 31.6797L209.408 21.7266L203.33 21.7266L203.713 19.0391L210.401 19.0391L210.815 16L204.127 16L204.541 12.9922L210.557 12.8359L210.979 9.78906L193.44 10.2422L192.994 13.2812L198.658 13.1484L198.276 16L192.033 16L191.619 19.0391L197.854 19.0391ZM128.286 14.1094L127.232 9.85938L122.528 9.85938L123.614 14.1094L128.286 14.1094ZM185.666 9.85938L186.08 15.3281L191.362 15.3281L190.948 9.85938L185.666 9.85938ZM232.684 12.8984L242.13 12.8984L242.544 9.85938L217.005 9.85938L216.591 12.8984L226.606 12.8984L226.481 13.7891L216.466 13.7891L217.52 15.0078L216.497 22.3047L224.302 22.3047L222.802 23.6797L222.13 23.2344L214.544 23.2344L219.692 26.4609L213.263 32.2891L219.95 32.2891L223.661 28.9297L229.075 32.2891L240.013 32.2891L240.528 28.7031L232.083 28.7031L227.247 25.6953L230.989 22.3047L240.208 22.3047L241.395 13.7891L232.559 13.7891L232.684 12.8984ZM295.533 17.7578L295.283 19.5859L291.314 19.5859L290.893 22.625L294.861 22.625L293.939 29.3125L291.057 32.2891L297.361 32.2891Q297.82 32.2891 298.228 32.1442Q298.646 31.9958 299.01 31.6953Q299.365 31.402 299.583 31.0287Q299.806 30.6462 299.885 30.1797L300.947 22.625L304.877 22.625L305.299 19.5859L301.361 19.5859L301.549 18.2109L304.846 14.1094L305.455 9.85938L293.299 9.85938L292.877 12.8984L299.471 12.8984L295.533 17.7578ZM37.2969 17.1172L37.2031 17.9219L31.5391 17.9219L31.1875 20.4141L36.8516 20.4141L36.75 21.0547L31.8203 21.0547L31.4375 23.6172L36.3672 23.6172L35.5391 29.6641L33.1328 31.9688L38.9922 31.9688Q39.263 31.9688 39.517 31.9036Q40.04 31.7695 40.4922 31.3594Q40.9466 30.9473 41.1544 30.4351Q41.2539 30.19 41.2969 29.9219L42.1562 23.6172L48.7188 23.6172L49.1641 20.4141L50.5469 20.4141L50.8984 17.9219L49.5234 17.9219L49.9688 14.75L43.4062 14.75L43.5703 13.7266L37.7734 13.7266L37.6172 14.75L32.6562 14.75L32.3359 17.1172L37.2969 17.1172ZM80.8306 22.0156L81.9869 13.8203L56.4478 13.8203L55.2994 22.0156L80.8306 22.0156ZM122.114 18.3672L120.286 31.3906L128.388 29.8203L128.833 26.7188L126.56 27.1328L128.224 15.3281L120.833 15.3281L120.388 18.3672L122.114 18.3672ZM285.486 15.6484L284.205 24.7344L283.697 25.2188L283.314 24.7344L284.596 15.6484L285.486 15.6484ZM225.997 17.1484L223.278 17.1484L223.411 16.2266L226.13 16.2266L225.997 17.1484ZM232.083 17.1484L232.208 16.2266L234.958 16.2266L234.833 17.1484L232.083 17.1484ZM75.4556 16.8672L62.0806 16.8672L62.1744 16.2578L75.5494 16.2578L75.4556 16.8672ZM184.737 16.5469L185.151 22.0156L190.432 22.0156L190.018 16.5469L184.737 16.5469ZM42.9922 17.9219L43.0859 17.1172L44.8516 17.1172L44.7188 17.9219L42.9922 17.9219ZM98.5535 19.8899Q98.3878 20.3108 98.3878 20.7969Q98.3878 21.2925 98.56 21.7184Q98.7434 22.1721 99.1222 22.5469Q99.4946 22.9113 99.9413 23.091Q100.376 23.2656 100.88 23.2656Q101.384 23.2656 101.819 23.091Q102.265 22.9113 102.638 22.5469Q103.017 22.1721 103.2 21.7184Q103.372 21.2925 103.372 20.7969Q103.372 20.3108 103.207 19.8899Q103.023 19.4246 102.638 19.0391Q102.252 18.6535 101.787 18.4704Q101.366 18.3047 100.88 18.3047Q100.394 18.3047 99.973 18.4704Q99.5078 18.6535 99.1222 19.0391Q98.7366 19.4246 98.5535 19.8899ZM75.1353 18.9766L75.0728 19.5859L61.6978 19.5859L61.7603 18.9766L75.1353 18.9766ZM225.747 18.9766L225.614 19.875L222.895 19.875L223.02 18.9766L225.747 18.9766ZM234.575 18.9766L234.45 19.875L231.692 19.875L231.825 18.9766L234.575 18.9766ZM326.27 21.0859L321.215 22.625L314.27 20.1953L309.184 21.6953L308.637 25.6641L313.856 24.1953L320.668 26.4922L325.731 25.0547L326.27 21.0859ZM44.3984 20.4141L44.3047 21.0547L42.5469 21.0547L42.6406 20.4141L44.3984 20.4141ZM66.7838 31.1016L70.815 32.2891L79.3619 32.2891L79.7134 29.9219L77.5963 29.9219L74.4947 29.0234L80.065 27.4844L80.6431 23.2344L62.2056 23.2344L62.4947 22.625L55.1978 22.625L55.9713 23.5547L53.8228 28.0938L56.6119 28.0938L59.6509 28.9922L56.2916 29.9219L54.1744 29.9219L53.8228 32.2891L62.4009 32.2891L66.7838 31.1016ZM247.038 26.8828L251.265 26.8828L245.054 32.2891L252.351 32.2891L258.562 26.8828L259.265 26.8828L264.515 32.2891L271.804 32.2891L266.46 26.8828L271.359 26.8828L271.804 23.8438L262.046 23.8438L263.453 22.625L256.163 22.625L254.749 23.8438L247.492 23.8438L247.038 26.8828ZM184.963 23.2344L181.955 32.2891L187.229 32.2891L190.237 23.2344L184.963 23.2344ZM30.125 24.3516L31.1484 27.3281L35.4062 27.3281L34.4453 24.3516L30.125 24.3516ZM43.9844 24.3516L42.2266 27.3281L46.4766 27.3281L48.3359 24.3516L43.9844 24.3516ZM203.58 24.7656L203.01 28.7344L196.19 28.7344L196.768 24.7656L203.58 24.7656ZM67.2994 27.3594L61.6978 25.6641L73.44 25.6641L67.2994 27.3594ZM31.0859 27.8047L27.9844 31.9375L32.2422 31.9375L35.3438 27.8047L31.0859 27.8047ZM42.1562 27.8047L44.1094 31.9375L48.3672 31.9375L46.4141 27.8047L42.1562 27.8047Z" fill="#000000" fill-opacity="1.000000" fill-rule="evenodd"/>
</svg>
